<svg width="580.85px" height="290.40001220703124px" xmlns="http://www.w3.org/2000/svg" viewBox="-40.42500000000001 -70.20000610351562 580.85 290.40001220703124" style="background: none;" preserveAspectRatio="xMidYMid"><defs><linearGradient id="editing-glowing-gradient" x1="0.8409991800312495" x2="0.15900081996875054" y1="0.8656768508095851" y2="0.13432314919041494"><stop offset="0" stop-color="darkblue"></stop><stop offset="1" stop-color="darkblue"></stop></linearGradient><filter id="editing-glowing" x="-100%" y="-100%" width="300%" height="300%"><feGaussianBlur in="SourceGraphic" result="blur" stdDeviation="1"></feGaussianBlur><feMerge><feMergeNode in="blur"></feMergeNode><feMergeNode in="SourceGraphic"></feMergeNode></feMerge></filter></defs><g filter="url(#editing-glowing)"><g transform="translate(43.18498659133911, 103.07999420166016)"><path d="M48.28 0L48.28 0L23.71 0L23.71 0Q13.96 0 9.24-3.90L9.24-3.90L9.24-3.90Q4.52-7.80 4.52-15.91L4.52-15.91L4.52-40.25L4.52-40.25Q4.52-48.36 9.24-52.26L9.24-52.26L9.24-52.26Q13.96-56.16 23.71-56.16L23.71-56.16L43.21-56.16L43.21-56.16Q44.69-56.16 45.36-55.50L45.36-55.50L45.36-55.50Q46.02-54.83 46.02-53.35L46.02-53.35L46.02-43.91L46.02-43.91Q46.02-42.43 45.36-41.77L45.36-41.77L45.36-41.77Q44.69-41.11 43.21-41.11L43.21-41.11L26.99-41.11L26.99-41.11Q24.57-41.11 23.40-40.13L23.40-40.13L23.40-40.13Q22.23-39.16 22.23-37.21L22.23-37.21L22.23-18.56L22.23-18.56Q22.23-16.61 23.13-15.68L23.13-15.68L23.13-15.68Q24.02-14.74 25.82-14.74L25.82-14.74L33.38-14.74L33.38-26.91L33.38-26.91Q33.38-28.39 34.05-29.05L34.05-29.05L34.05-29.05Q34.71-29.72 36.19-29.72L36.19-29.72L48.28-29.72L48.28-29.72Q49.76-29.72 50.43-29.05L50.43-29.05L50.43-29.05Q51.09-28.39 51.09-26.91L51.09-26.91L51.09-2.81L51.09-2.81Q51.09-1.33 50.43-0.66L50.43-0.66L50.43-0.66Q49.76 0 48.28 0ZM27.07-7.02L27.07-7.02L42.59-7.02L42.59-22.70L41.81-22.70L41.81-7.80L27.07-7.80L27.07-7.80Q19.19-7.80 16.50-9.91L16.50-9.91L16.50-9.91Q13.81-12.01 13.81-17.08L13.81-17.08L13.81-38.92L13.81-38.92Q13.81-44.07 16.22-46.22L16.22-46.22L16.22-46.22Q18.64-48.36 25.51-48.36L25.51-48.36L39-48.36L39-49.14L25.51-49.14L25.51-49.14Q18.02-49.14 15.52-46.80L15.52-46.80L15.52-46.80Q13.03-44.46 13.03-38.92L13.03-38.92L13.03-17.08L13.03-17.08Q13.03-14.35 13.61-12.44L13.61-12.44L13.61-12.44Q14.20-10.53 15.76-9.32L15.76-9.32L15.76-9.32Q17.32-8.11 20.05-7.57L20.05-7.57L20.05-7.57Q22.78-7.02 27.07-7.02ZM68.48-21.22L68.48-23.63L68.48-23.63Q68.48-25.74 68.83-27.53L68.83-27.53L68.83-27.53Q69.19-29.33 69.73-30.89L69.73-30.89L74.72-43.68L74.72-43.68Q75.50-45.63 76.44-46.99L76.44-46.99L76.44-46.99Q77.38-48.36 79.72-48.36L79.72-48.36L87.36-48.36L87.36-48.36Q89.54-48.36 90.48-46.99L90.48-46.99L90.48-46.99Q91.42-45.63 92.27-43.60L92.27-43.60L97.66-30.89L97.66-30.89Q98.20-29.33 98.55-27.53L98.55-27.53L98.55-27.53Q98.90-25.74 98.90-23.63L98.90-23.63L98.90-21.22L68.48-21.22ZM80.96-39.78L80.96-39.78L77.30-27.92L89.54-27.92L85.88-39.78L85.88-39.78Q85.57-40.48 85.22-40.79L85.22-40.79L85.22-40.79Q84.86-41.11 84.40-41.11L84.40-41.11L82.45-41.11L82.45-41.11Q81.98-41.11 81.63-40.79L81.63-40.79L81.63-40.79Q81.28-40.48 80.96-39.78ZM98.90-20.44L98.90-7.02L99.68-7.02L99.68-23.63L99.68-23.63Q99.68-25.82 99.33-27.65L99.33-27.65L99.33-27.65Q98.98-29.48 98.36-31.20L98.36-31.20L92.98-43.91L92.98-43.91Q92.04-46.18 90.99-47.66L90.99-47.66L90.99-47.66Q89.93-49.14 87.36-49.14L87.36-49.14L79.72-49.14L79.72-49.14Q77.06-49.14 75.97-47.66L75.97-47.66L75.97-47.66Q74.88-46.18 74.02-43.99L74.02-43.99L69.03-31.20L69.03-31.20Q68.41-29.48 68.05-27.65L68.05-27.65L68.05-27.65Q67.70-25.82 67.70-23.63L67.70-23.63L67.70-7.02L68.48-7.02L68.48-20.44L98.90-20.44ZM76.52-13.73L76.52-2.81L76.52-2.81Q76.52-1.33 75.85-0.66L75.85-0.66L75.85-0.66Q75.19 0 73.71 0L73.71 0L62.24 0L62.24 0Q60.76 0 60.10-0.66L60.10-0.66L60.10-0.66Q59.44-1.33 59.44-2.81L59.44-2.81L59.44-23.40L59.44-23.40Q59.44-25.74 60.18-28.78L60.18-28.78L60.18-28.78Q60.92-31.82 62.48-35.88L62.48-35.88L69.26-53.59L69.26-53.59Q69.73-54.91 70.71-55.54L70.71-55.54L70.71-55.54Q71.68-56.16 73.24-56.16L73.24-56.16L94.22-56.16L94.22-56.16Q95.71-56.16 96.68-55.54L96.68-55.54L96.68-55.54Q97.66-54.91 98.12-53.59L98.12-53.59L104.91-35.88L104.91-35.88Q106.47-31.82 107.21-28.78L107.21-28.78L107.21-28.78Q107.95-25.74 107.95-23.40L107.95-23.40L107.95-2.81L107.95-2.81Q107.95-1.33 107.29-0.66L107.29-0.66L107.29-0.66Q106.63 0 105.14 0L105.14 0L93.37 0L93.37 0Q91.81 0 91.06-0.66L91.06-0.66L91.06-0.66Q90.32-1.33 90.32-2.81L90.32-2.81L90.32-13.73L76.52-13.73ZM145.00-30.03L145.00-30.03L145.00-30.03Q143.60-30.03 142.97-30.65L142.97-30.65L142.97-30.65Q142.35-31.28 141.02-33.31L141.02-33.31L131.51-47.81L131.51-47.81Q131.04-48.59 130.42-48.87L130.42-48.87L130.42-48.87Q129.79-49.14 129.17-49.14L129.17-49.14L127.84-49.14L127.84-49.14Q126.83-49.14 126.32-48.55L126.32-48.55L126.32-48.55Q125.81-47.97 125.81-46.72L125.81-46.72L125.81-7.02L126.59-7.02L126.59-46.72L126.59-46.72Q126.59-47.35 126.83-47.85L126.83-47.85L126.83-47.85Q127.06-48.36 127.84-48.36L127.84-48.36L129.01-48.36L129.01-48.36Q129.56-48.36 129.99-48.20L129.99-48.20L129.99-48.20Q130.42-48.05 130.88-47.27L130.88-47.27L140.40-32.92L140.40-32.92Q141.80-30.81 142.54-30.03L142.54-30.03L142.54-30.03Q143.29-29.25 145.00-29.25L145.00-29.25L145.00-29.25Q146.72-29.25 147.46-30.03L147.46-30.03L147.46-30.03Q148.20-30.81 149.60-32.92L149.60-32.92L159.12-47.27L159.12-47.27Q159.59-48.05 159.98-48.20L159.98-48.20L159.98-48.20Q160.37-48.36 160.91-48.36L160.91-48.36L162.08-48.36L162.08-48.36Q162.86-48.36 163.14-47.85L163.14-47.85L163.14-47.85Q163.41-47.35 163.41-46.72L163.41-46.72L163.41-7.02L164.19-7.02L164.19-46.72L164.19-46.72Q164.19-47.97 163.68-48.55L163.68-48.55L163.68-48.55Q163.18-49.14 162.08-49.14L162.08-49.14L160.76-49.14L160.76-49.14Q160.13-49.14 159.55-48.87L159.55-48.87L159.55-48.87Q158.96-48.59 158.50-47.81L158.50-47.81L148.98-33.31L148.98-33.31Q147.65-31.28 147.03-30.65L147.03-30.65L147.03-30.65Q146.41-30.03 145.00-30.03ZM131.98 0L131.98 0L120.35 0L120.35 0Q118.87 0 118.21-0.66L118.21-0.66L118.21-0.66Q117.55-1.33 117.55-2.81L117.55-2.81L117.55-53.35L117.55-53.35Q117.55-54.83 118.21-55.50L118.21-55.50L118.21-55.50Q118.87-56.16 120.35-56.16L120.35-56.16L132.91-56.16L132.91-56.16Q134.16-56.16 134.98-55.61L134.98-55.61L134.98-55.61Q135.80-55.07 136.50-53.82L136.50-53.82L143.52-41.11L143.52-41.11Q143.91-40.40 144.18-40.09L144.18-40.09L144.18-40.09Q144.46-39.78 144.92-39.78L144.92-39.78L145.63-39.78L145.63-39.78Q146.09-39.78 146.37-40.09L146.37-40.09L146.37-40.09Q146.64-40.40 147.03-41.11L147.03-41.11L153.97-53.82L153.97-53.82Q154.67-55.07 155.49-55.61L155.49-55.61L155.49-55.61Q156.31-56.16 157.56-56.16L157.56-56.16L170.20-56.16L170.20-56.16Q171.68-56.16 172.34-55.50L172.34-55.50L172.34-55.50Q173.00-54.83 173.00-53.35L173.00-53.35L173.00-2.81L173.00-2.81Q173.00-1.33 172.34-0.66L172.34-0.66L172.34-0.66Q171.68 0 170.20 0L170.20 0L158.18 0L158.18 0Q156.70 0 156.04-0.66L156.04-0.66L156.04-0.66Q155.38-1.33 155.38-2.81L155.38-2.81L155.38-30.26L150.77-21.76L150.77-21.76Q150.07-20.44 149.10-19.85L149.10-19.85L149.10-19.85Q148.12-19.27 146.64-19.27L146.64-19.27L143.52-19.27L143.52-19.27Q142.04-19.27 141.06-19.85L141.06-19.85L141.06-19.85Q140.09-20.44 139.39-21.76L139.39-21.76L134.78-30.26L134.78-2.81L134.78-2.81Q134.78-1.33 134.12-0.66L134.12-0.66L134.12-0.66Q133.46 0 131.98 0ZM222.77 0L222.77 0L186.58 0L186.58 0Q185.09 0 184.43-0.66L184.43-0.66L184.43-0.66Q183.77-1.33 183.77-2.81L183.77-2.81L183.77-53.35L183.77-53.35Q183.77-54.83 184.43-55.50L184.43-55.50L184.43-55.50Q185.09-56.16 186.58-56.16L186.58-56.16L222.77-56.16L222.77-56.16Q224.25-56.16 224.91-55.50L224.91-55.50L224.91-55.50Q225.58-54.83 225.58-53.35L225.58-53.35L225.58-44.23L225.58-44.23Q225.58-42.74 224.91-42.08L224.91-42.08L224.91-42.08Q224.25-41.42 222.77-41.42L222.77-41.42L201.24-41.42L201.24-35.41L216.45-35.41L216.45-35.41Q217.93-35.41 218.59-34.75L218.59-34.75L218.59-34.75Q219.26-34.09 219.26-32.60L219.26-32.60L219.26-24.26L219.26-24.26Q219.26-22.78 218.59-22.11L218.59-22.11L218.59-22.11Q217.93-21.45 216.45-21.45L216.45-21.45L201.24-21.45L201.24-14.74L222.77-14.74L222.77-14.74Q224.25-14.74 224.91-14.08L224.91-14.08L224.91-14.08Q225.58-13.42 225.58-11.93L225.58-11.93L225.58-2.81L225.58-2.81Q225.58-1.33 224.91-0.66L224.91-0.66L224.91-0.66Q224.25 0 222.77 0ZM218.56-7.02L218.56-7.80L193.05-7.80L193.05-28.00L212.24-28.00L212.24-28.78L193.05-28.78L193.05-48.36L218.56-48.36L218.56-49.14L192.27-49.14L192.27-7.02L218.56-7.02ZM260.83 0L260.83 0L236.18 0L236.18 0Q234.70 0 234.04-0.66L234.04-0.66L234.04-0.66Q233.38-1.33 233.38-2.81L233.38-2.81L233.38-11.93L233.38-11.93Q233.38-13.42 234.04-14.08L234.04-14.08L234.04-14.08Q234.70-14.74 236.18-14.74L236.18-14.74L257.17-14.74L257.17-14.74Q258.18-14.74 258.69-15.40L258.69-15.40L258.69-15.40Q259.19-16.07 259.19-17.00L259.19-17.00L259.19-17.00Q259.19-18.33 258.69-18.95L258.69-18.95L258.69-18.95Q258.18-19.58 257.17-19.66L257.17-19.66L245.47-21.29L245.47-21.29Q240.01-22.07 236.69-24.88L236.69-24.88L236.69-24.88Q233.38-27.69 233.38-34.24L233.38-34.24L233.38-42.43L233.38-42.43Q233.38-49.06 237.67-52.61L237.67-52.61L237.67-52.61Q241.96-56.16 249.52-56.16L249.52-56.16L271.36-56.16L271.36-56.16Q272.84-56.16 273.51-55.50L273.51-55.50L273.51-55.50Q274.17-54.83 274.17-53.35L274.17-53.35L274.17-44.07L274.17-44.07Q274.17-42.59 273.51-41.92L273.51-41.92L273.51-41.92Q272.84-41.26 271.36-41.26L271.36-41.26L253.19-41.26L253.19-41.26Q252.17-41.26 251.63-40.60L251.63-40.60L251.63-40.60Q251.08-39.94 251.08-38.92L251.08-38.92L251.08-38.92Q251.08-37.91 251.63-37.21L251.63-37.21L251.63-37.21Q252.17-36.50 253.19-36.43L253.19-36.43L264.81-34.87L264.81-34.87Q270.27-34.09 273.62-31.28L273.62-31.28L273.62-31.28Q276.98-28.47 276.98-21.92L276.98-21.92L276.98-13.73L276.98-13.73Q276.98-7.10 272.65-3.55L272.65-3.55L272.65-3.55Q268.32 0 260.83 0ZM267.15-48.36L267.15-49.14L249.83-49.14L249.83-49.14Q246.25-49.14 244.06-47.15L244.06-47.15L244.06-47.15Q241.88-45.16 241.88-42.04L241.88-42.04L241.88-35.65L241.88-35.65Q241.88-32.45 243.16-31.24L243.16-31.24L243.16-31.24Q244.45-30.03 246.48-29.64L246.48-29.64L262.94-26.29L262.94-26.29Q265.12-25.82 266.41-24.45L266.41-24.45L266.41-24.45Q267.70-23.09 267.70-19.42L267.70-19.42L267.70-14.90L267.70-14.90Q267.70-11.78 265.55-9.79L265.55-9.79L265.55-9.79Q263.41-7.80 259.82-7.80L259.82-7.80L240.40-7.80L240.40-7.02L259.82-7.02L259.82-7.02Q263.80-7.02 266.14-9.24L266.14-9.24L266.14-9.24Q268.48-11.47 268.48-14.90L268.48-14.90L268.48-19.42L268.48-19.42Q268.48-23.48 266.95-25.04L266.95-25.04L266.95-25.04Q265.43-26.60 263.09-27.07L263.09-27.07L246.64-30.42L246.64-30.42Q244.84-30.73 243.75-31.82L243.75-31.82L243.75-31.82Q242.66-32.92 242.66-35.65L242.66-35.65L242.66-42.04L242.66-42.04Q242.66-44.77 244.61-46.57L244.61-46.57L244.61-46.57Q246.56-48.36 249.83-48.36L249.83-48.36L267.15-48.36ZM332.12 0L332.12 0L305.84 0L305.84 0Q304.36 0 303.69-0.66L303.69-0.66L303.69-0.66Q303.03-1.33 303.03-2.81L303.03-2.81L303.03-53.35L303.03-53.35Q303.03-54.83 303.69-55.50L303.69-55.50L303.69-55.50Q304.36-56.16 305.84-56.16L305.84-56.16L332.12-56.16L332.12-56.16Q341.87-56.16 346.59-52.26L346.59-52.26L346.59-52.26Q351.31-48.36 351.31-40.25L351.31-40.25L351.31-15.91L351.31-15.91Q351.31-7.80 346.59-3.90L346.59-3.90L346.59-3.90Q341.87 0 332.12 0ZM311.53-49.14L311.53-7.02L330.41-7.02L330.41-7.02Q334.39-7.02 336.88-7.84L336.88-7.84L336.88-7.84Q339.38-8.66 340.70-10.06L340.70-10.06L340.70-10.06Q342.03-11.47 342.46-13.42L342.46-13.42L342.46-13.42Q342.89-15.37 342.89-17.63L342.89-17.63L342.89-38.30L342.89-38.30Q342.89-40.56 342.42-42.55L342.42-42.55L342.42-42.55Q341.95-44.54 340.63-45.98L340.63-45.98L340.63-45.98Q339.30-47.42 336.84-48.28L336.84-48.28L336.84-48.28Q334.39-49.14 330.41-49.14L330.41-49.14L311.53-49.14ZM312.31-48.36L330.41-48.36L330.41-48.36Q334.07-48.36 336.37-47.58L336.37-47.58L336.37-47.58Q338.68-46.80 339.92-45.47L339.92-45.47L339.92-45.47Q341.17-44.15 341.64-42.28L341.64-42.28L341.64-42.28Q342.11-40.40 342.11-38.30L342.11-38.30L342.11-17.63L342.11-17.63Q342.11-15.52 341.68-13.69L341.68-13.69L341.68-13.69Q341.25-11.86 340.00-10.57L340.00-10.57L340.00-10.57Q338.75-9.28 336.45-8.54L336.45-8.54L336.45-8.54Q334.15-7.80 330.41-7.80L330.41-7.80L312.31-7.80L312.31-48.36ZM330.02-41.26L320.74-41.26L320.74-14.74L330.02-14.74L330.02-14.74Q331.89-14.74 332.79-15.68L332.79-15.68L332.79-15.68Q333.68-16.61 333.68-18.56L333.68-18.56L333.68-37.52L333.68-37.52Q333.68-39.47 332.79-40.37L332.79-40.37L332.79-40.37Q331.89-41.26 330.02-41.26L330.02-41.26ZM393.98 0L393.98 0L364.03 0L364.03 0Q362.54 0 361.88-0.66L361.88-0.66L361.88-0.66Q361.22-1.33 361.22-2.81L361.22-2.81L361.22-53.35L361.22-53.35Q361.22-54.83 361.88-55.50L361.88-55.50L361.88-55.50Q362.54-56.16 364.03-56.16L364.03-56.16L388.91-56.16L388.91-56.16Q396.55-56.16 400.22-53.23L400.22-53.23L400.22-53.23Q403.88-50.31 403.88-44.23L403.88-44.23L403.88-40.48L403.88-40.48Q403.88-37.21 402.75-35.14L402.75-35.14L402.75-35.14Q401.62-33.07 399.28-32.06L399.28-32.06L399.28-32.06Q404.27-31.59 406.69-28.63L406.69-28.63L406.69-28.63Q409.11-25.66 409.11-19.97L409.11-19.97L409.11-12.79L409.11-12.79Q409.11-6.24 405.40-3.12L405.40-3.12L405.40-3.12Q401.70 0 393.98 0ZM369.88-49.14L369.88-7.02L390.86-7.02L390.86-7.02Q394.13-7.02 396.16-7.61L396.16-7.61L396.16-7.61Q398.19-8.19 399.24-9.20L399.24-9.20L399.24-9.20Q400.30-10.22 400.69-11.66L400.69-11.66L400.69-11.66Q401.08-13.10 401.08-14.82L401.08-14.82L401.08-19.81L401.08-19.81Q401.08-21.76 400.72-23.40L400.72-23.40L400.72-23.40Q400.37-25.04 399.28-26.25L399.28-26.25L399.28-26.25Q398.19-27.46 396.16-28.12L396.16-28.12L396.16-28.12Q394.13-28.78 390.94-28.78L390.94-28.78L390.94-28.78Q394.29-29.64 395.11-31.59L395.11-31.59L395.11-31.59Q395.93-33.54 395.93-35.88L395.93-35.88L395.93-40.87L395.93-40.87Q395.93-42.59 395.54-44.07L395.54-44.07L395.54-44.07Q395.15-45.55 394.06-46.68L394.06-46.68L394.06-46.68Q392.96-47.81 390.94-48.48L390.94-48.48L390.94-48.48Q388.91-49.14 385.71-49.14L385.71-49.14L369.88-49.14ZM370.66-48.36L385.71-48.36L385.71-48.36Q391.56-48.36 393.35-46.18L393.35-46.18L393.35-46.18Q395.15-43.99 395.15-40.87L395.15-40.87L395.15-35.88L395.15-35.88Q395.15-34.48 394.87-33.19L394.87-33.19L394.87-33.19Q394.60-31.90 393.63-30.93L393.63-30.93L393.63-30.93Q392.65-29.95 390.78-29.37L390.78-29.37L390.78-29.37Q388.91-28.78 385.71-28.78L385.71-28.78L370.66-28.78L370.66-48.36ZM385.40-42.90L378.77-42.90L378.77-34.48L385.40-34.48L385.40-34.48Q386.88-34.48 387.62-35.26L387.62-35.26L387.62-35.26Q388.36-36.04 388.36-37.60L388.36-37.60L388.36-39.78L388.36-39.78Q388.36-41.34 387.62-42.12L387.62-42.12L387.62-42.12Q386.88-42.90 385.40-42.90L385.40-42.90ZM370.66-28.00L390.94-28.00L390.94-28.00Q396.79-28.00 398.54-25.66L398.54-25.66L398.54-25.66Q400.30-23.32 400.30-19.81L400.30-19.81L400.30-14.82L400.30-14.82Q400.30-11.62 398.50-9.71L398.50-9.71L398.50-9.71Q396.71-7.80 390.86-7.80L390.86-7.80L370.66-7.80L370.66-28.00ZM388.91-22.46L378.77-22.46L378.77-13.26L388.91-13.26L388.91-13.26Q390.39-13.26 391.13-14.04L391.13-14.04L391.13-14.04Q391.87-14.82 391.87-16.38L391.87-16.38L391.87-19.42L391.87-19.42Q391.87-20.98 391.13-21.72L391.13-21.72L391.13-21.72Q390.39-22.46 388.91-22.46L388.91-22.46Z" fill="url(#editing-glowing-gradient)"></path></g></g><style>text {
  font-size: 64px;
  font-family: Arial Black;
  dominant-baseline: central;
  text-anchor: middle;
}</style></svg>